<svg xmlns="http://www.w3.org/2000/svg" viewBox="0 0 1300 300" width="1300" height="300">
  <!-- Tree Group (New Asset with transparency fix) -->
  <g fill="white" transform="translate(40, 20) scale(1.9)">
    <path fill-rule="evenodd" d="M 69.5,30.5 C 73.9387,30.7544 78.272,31.5877 82.5,33C 85.9499,35.158 86.2833,37.658 83.5,40.5C 85.3623,43.5664 87.6956,44.0664 90.5,42C 94.5,41.3333 98.5,41.3333 102.5,42C 105.196,42.6898 107.363,44.1898 109,46.5C 109.725,45.9415 110.558,45.6082 111.5,45.5C 121.915,46.3064 131.582,49.3064 140.5,54.5C 141.747,56.0421 141.747,57.5421 140.5,59C 143.757,59.7491 146.424,61.4157 148.5,64C 147.833,65 147.167,66 146.5,67C 142.679,68.8324 138.679,70.1657 134.5,71C 132.341,75.0859 129.008,77.7526 124.5,79C 127.458,79.2293 129.958,80.396 132,82.5C 132.72,84.1124 132.554,85.6124 131.5,87C 122.071,91.4691 112.571,91.6358 103,87.5C 90.4748,98.3845 86.9748,111.718 92.5,127.5C 83.8333,127.5 75.1667,127.5 66.5,127.5C 68.9362,117.603 69.1029,107.603 67,97.5C 66.7265,95.6711 65.8932,94.1711 64.5,93C 58.6258,93.4174 54.9591,90.9174 53.5,85.5C 42.693,84.2415 32.3597,81.4081 22.5,77C 21.2567,75.8455 20.2567,74.5122 19.5,73C 17.8659,72.5065 16.1992,72.3398 14.5,72.5C 14.3345,68.4862 14.5012,64.4862 15,60.5C 19.2794,58.2792 23.4461,55.9459 27.5,53.5C 28.0389,50.8336 29.3722,48.6669 31.5,47C 35.4005,45.2156 39.4005,43.7156 43.5,42.5C 45.2827,40.7684 47.2827,39.2684 49.5,38C 56.3849,35.7089 63.0516,33.2089 69.5,30.5 Z M 56.5,66.5 C 59.8656,69.4929 63.0322,72.8263 66,76.5C 67.5426,78.0894 67.5426,79.4228 66,80.5C 57.623,76.3635 48.7897,73.6968 39.5,72.5C 42.8715,71.6594 45.8715,70.1594 48.5,68C 51.3647,67.8171 54.0314,67.3171 56.5,66.5 Z M 71.5,68.5 C 75.3112,67.3547 79.3112,67.1881 83.5,68C 81.3056,70.6947 79.3056,73.528 77.5,76.5C 75.4793,73.7653 73.4793,71.0986 71.5,68.5 Z M 98.5,68.5 C 102.229,69.0128 105.896,69.8461 109.5,71C 101.125,77.0204 92.958,83.5204 85,90.5C 84.8632,80.1714 89.3632,72.8381 98.5,68.5 Z M 117.5,69.5 C 122.564,69.6985 122.397,70.3651 117,71.5C 116.5,71.3333 116,71.1667 115.5,71C 116.416,70.7216 117.082,70.2216 117.5,69.5 Z" />
  </g>
  <!-- Text (Matching Asset) -->
  <text x="350" y="235" font-family="'Arial Black', sans-serif" font-weight="900" font-size="200" fill="white" letter-spacing="-5">PARKS</text>
</svg>
